HIERARCHY
ROOT hip
{
OFFSET 0.10 80.85 0.18
CHANNELS 6 Xposition Yposition Zposition Zrotation Xrotation Yrotation
JOINT abdomen
{
OFFSET 0 7.23 0
CHANNELS 6 Xposition Yposition Zposition Zrotation Xrotation Yrotation
JOINT chest
{
OFFSET 0 16.54 0
CHANNELS 6 Xposition Yposition Zposition Zrotation Xrotation Yrotation
JOINT neck
{
OFFSET 0 34.21 0
CHANNELS 6 Xposition Yposition Zposition Zrotation Xrotation Yrotation
JOINT head
{
OFFSET 0 6.29 0
CHANNELS 6 Xposition Yposition Zposition Zrotation Xrotation Yrotation
End Site
{
OFFSET 0 21.21 0
}
}
}
JOINT lCollar
{
OFFSET 4.06 26.61 -1.12
CHANNELS 6 Xposition Yposition Zposition Zrotation Xrotation Yrotation
JOINT lShldr
{
OFFSET 14.17 0 0
CHANNELS 6 Xposition Yposition Zposition Zrotation Xrotation Yrotation
JOINT lForeArm
{
OFFSET 26.12 0 0
CHANNELS 6 Xposition Yposition Zposition Zrotation Xrotation Yrotation
JOINT lHand
{
OFFSET 27.71 0 0
CHANNELS 6 Xposition Yposition Zposition Zrotation Xrotation Yrotation
JOINT lThumb1
{
OFFSET 2.29 -0.46 1.83
CHANNELS 6 Xposition Yposition Zposition Zrotation Xrotation Yrotation
JOINT lThumb2
{
OFFSET 5.29 0 0
CHANNELS 6 Xposition Yposition Zposition Zrotation Xrotation Yrotation
JOINT lThumb3
{
OFFSET 3.01 0 0
CHANNELS 6 Xposition Yposition Zposition Zrotation Xrotation Yrotation
End Site
{
OFFSET 2.62 0 0
}
}
}
}
JOINT lIndex1
{
OFFSET 9.37 0.29 2.59
CHANNELS 6 Xposition Yposition Zposition Zrotation Xrotation Yrotation
JOINT lIndex2
{
OFFSET 4.34 0 0
CHANNELS 6 Xposition Yposition Zposition Zrotation Xrotation Yrotation
JOINT lIndex3
{
OFFSET 2.16 0 0
CHANNELS 6 Xposition Yposition Zposition Zrotation Xrotation Yrotation
End Site
{
OFFSET 2.20 0 0
}
}
}
}
JOINT lMid1
{
OFFSET 9.47 0.83 0.29
CHANNELS 6 Xposition Yposition Zposition Zrotation Xrotation Yrotation
JOINT lMid2
{
OFFSET 4.77 0 0
CHANNELS 6 Xposition Yposition Zposition Zrotation Xrotation Yrotation
JOINT lMid3
{
OFFSET 2.87 0 0
CHANNELS 6 Xposition Yposition Zposition Zrotation Xrotation Yrotation
End Site
{
OFFSET 2.09 0 0
}
}
}
}
JOINT lRing1
{
OFFSET 8.65 1.01 -1.70
CHANNELS 6 Xposition Yposition Zposition Zrotation Xrotation Yrotation
JOINT lRing2
{
OFFSET 4.54 0 0
CHANNELS 6 Xposition Yposition Zposition Zrotation Xrotation Yrotation
JOINT lRing3
{
OFFSET 2.50 0 0
CHANNELS 6 Xposition Yposition Zposition Zrotation Xrotation Yrotation
End Site
{
OFFSET 2.20 0 0
}
}
}
}
JOINT lPinky1
{
OFFSET 7.69 0.66 -3.90
CHANNELS 6 Xposition Yposition Zposition Zrotation Xrotation Yrotation
JOINT lPinky2
{
OFFSET 3.21 0 0
CHANNELS 6 Xposition Yposition Zposition Zrotation Xrotation Yrotation
JOINT lPinky3
{
OFFSET 1.92 0 0
CHANNELS 6 Xposition Yposition Zposition Zrotation Xrotation Yrotation
End Site
{
OFFSET 1.78 0 0
}
}
}
}
}
}
}
}
JOINT rCollar
{
OFFSET -4.06 26.61 -1.12
CHANNELS 6 Xposition Yposition Zposition Zrotation Xrotation Yrotation
JOINT rShldr
{
OFFSET -14.17 0 0
CHANNELS 6 Xposition Yposition Zposition Zrotation Xrotation Yrotation
JOINT rForeArm
{
OFFSET -26.12 0 0
CHANNELS 6 Xposition Yposition Zposition Zrotation Xrotation Yrotation
JOINT rHand
{
OFFSET -27.71 0 0
CHANNELS 6 Xposition Yposition Zposition Zrotation Xrotation Yrotation
JOINT rThumb1
{
OFFSET -2.29 -0.46 1.83
CHANNELS 6 Xposition Yposition Zposition Zrotation Xrotation Yrotation
JOINT rThumb2
{
OFFSET -5.29 0 0
CHANNELS 6 Xposition Yposition Zposition Zrotation Xrotation Yrotation
JOINT rThumb3
{
OFFSET -3.01 0 0
CHANNELS 6 Xposition Yposition Zposition Zrotation Xrotation Yrotation
End Site
{
OFFSET -2.62 0 0
}
}
}
}
JOINT rIndex1
{
OFFSET -9.37 0.29 2.59
CHANNELS 6 Xposition Yposition Zposition Zrotation Xrotation Yrotation
JOINT rIndex2
{
OFFSET -4.34 0 0
CHANNELS 6 Xposition Yposition Zposition Zrotation Xrotation Yrotation
JOINT rIndex3
{
OFFSET -2.16 0 0
CHANNELS 6 Xposition Yposition Zposition Zrotation Xrotation Yrotation
End Site
{
OFFSET -2.20 0 0
}
}
}
}
JOINT rMid1
{
OFFSET -9.47 0.83 0.29
CHANNELS 6 Xposition Yposition Zposition Zrotation Xrotation Yrotation
JOINT rMid2
{
OFFSET -4.77 0 0
CHANNELS 6 Xposition Yposition Zposition Zrotation Xrotation Yrotation
JOINT rMid3
{
OFFSET -2.87 0 0
CHANNELS 6 Xposition Yposition Zposition Zrotation Xrotation Yrotation
End Site
{
OFFSET -2.09 0 0
}
}
}
}
JOINT rRing1
{
OFFSET -8.65 1.01 -1.70
CHANNELS 6 Xposition Yposition Zposition Zrotation Xrotation Yrotation
JOINT rRing2
{
OFFSET -4.54 0 0
CHANNELS 6 Xposition Yposition Zposition Zrotation Xrotation Yrotation
JOINT rRing3
{
OFFSET -2.50 0 0
CHANNELS 6 Xposition Yposition Zposition Zrotation Xrotation Yrotation
End Site
{
OFFSET -2.20 0 0
}
}
}
}
JOINT rPinky1
{
OFFSET -7.69 0.66 -3.90
CHANNELS 6 Xposition Yposition Zposition Zrotation Xrotation Yrotation
JOINT rPinky2
{
OFFSET -3.21 0 0
CHANNELS 6 Xposition Yposition Zposition Zrotation Xrotation Yrotation
JOINT rPinky3
{
OFFSET -1.92 0 0
CHANNELS 6 Xposition Yposition Zposition Zrotation Xrotation Yrotation
End Site
{
OFFSET -1.78 0 0
}
}
}
}
}
}
}
}
}
}
JOINT lThigh
{
OFFSET 8.73 -0 0
CHANNELS 6 Xposition Yposition Zposition Zrotation Xrotation Yrotation
JOINT lShin
{
OFFSET 0 -46.66 0
CHANNELS 6 Xposition Yposition Zposition Zrotation Xrotation Yrotation
JOINT lFoot
{
OFFSET 0 -40.14 0
CHANNELS 6 Xposition Yposition Zposition Zrotation Xrotation Yrotation
JOINT lToes
{
OFFSET 0 -8.88 14.22
CHANNELS 6 Xposition Yposition Zposition Zrotation Xrotation Yrotation
End Site
{
OFFSET 0 0 6.29
}
}
}
}
}
JOINT rThigh
{
OFFSET -8.73 0 -0
CHANNELS 6 Xposition Yposition Zposition Zrotation Xrotation Yrotation
JOINT rShin
{
OFFSET 0 -46.66 0
CHANNELS 6 Xposition Yposition Zposition Zrotation Xrotation Yrotation
JOINT rFoot
{
OFFSET 0 -40.14 0
CHANNELS 6 Xposition Yposition Zposition Zrotation Xrotation Yrotation
JOINT rToes
{
OFFSET 0 -8.88 14.22
CHANNELS 6 Xposition Yposition Zposition Zrotation Xrotation Yrotation
End Site
{
OFFSET 0 0 6.29
}
}
}
}
}
}
MOTION
Frames: 4
Frame Time: 0.03
1.60 80.37 12.99 -3.14 -2.85 -60.87 0 7.23 0 -0.33 0.33 7.16 0 16.54 0 -1.14 2.50 14.70 0 34.21 0 -6.66 28.45 10.8 0 6.29 0 -9.21 -14.63 22.18 4.06 26.61 -1.12 18.45 -8.67 -10.92 14.17 0 0 -31.56 -34.54 -42.16 26.12 0 0 -0.37 0.08 -25.62 27.71 0 0 -9.33 -15.23 1.98 2.29 -0.46 1.83 53.91 51.92 -90.04 5.29 0 0 -39.29 -9.79 13.71 3.01 0 0 4.11 13.77 24.78 9.37 0.29 2.59 -40.16 -3.70 4.53 4.34 0 0 -85.75 -10.84 11.96 2.16 0 0 -51.94 -4.48 8.76 9.47 0.83 0.29 -33.90 -6.88 4.21 4.77 0 0 -91.96 -15.46 15.03 2.87 0 0 -45.45 -4.33 12.00 8.65 1.01 -1.70 -34.34 -0.19 5.62 4.54 0 0 -112.19 -10.89 7.33 2.50 0 0 -55.68 -3.39 7.46 7.69 0.66 -3.90 -38.52 -17.89 5.94 3.21 0 0 -78.87 -16.45 19.94 1.92 0 0 -107.05 -25.99 20.93 -4.06 26.61 -1.12 6.78 -8.08 19.93 -14.17 0 0 38.24 18.19 44.00 -26.12 0 0 0.81 1.13 108.82 -27.71 0 0 -15.21 -22.93 0.80 -2.29 -0.46 1.83 -54.04 49.66 90.97 -5.29 0 0 40.72 -10.74 -14.41 -3.01 0 0 2.16 12.04 -27.90 -9.37 0.29 2.59 39.61 -3.22 -3.53 -4.34 0 0 86.20 -9.75 -10.71 -2.16 0 0 52.18 -4.03 -7.84 -9.47 0.83 0.29 33.39 -6.50 -3.27 -4.77 0 0 92.58 -14.25 -13.71 -2.87 0 0 45.75 -4.00 -11.05 -8.65 1.01 -1.70 33.75 0.18 -4.71 -4.54 0 0 112.53 -9.25 -6.18 -2.50 0 0 55.87 -2.89 -6.32 -7.69 0.66 -3.90 38.26 -17.43 -4.88 -3.21 0 0 79.61 -15.55 -18.61 -1.92 0 0 108.04 -24.51 -19.39 8.73 -0 0 14.26 -16.59 33.99 0 -46.66 0 40.36 63.69 -33.41 0 -40.14 0 -20.48 -40.95 -2.91 0 -8.88 14.22 0 0 0 -8.73 0 -0 -28.18 -16.92 -3.42 0 -46.66 0 -6.13 55.06 -0.71 0 -40.14 0 27.32 -20.13 -11.41 0 -8.88 14.22 0 0 0 
1.74 80.39 12.56 -3.80 -2.96 -58.39 0 7.23 0 -0.36 0.38 5.49 0 16.54 0 -1.36 2.59 11.37 0 34.21 0 -7.11 27.76 11.47 0 6.29 0 -8.66 -14.26 23.65 4.06 26.61 -1.12 18.81 -8.77 -12.75 14.17 0 0 -36.72 -36.79 -42.84 26.12 0 0 -0.44 0.12 -30.83 27.71 0 0 -6.03 -16.21 7.66 2.29 -0.46 1.83 53.91 51.92 -90.04 5.29 0 0 -39.29 -9.79 13.71 3.01 0 0 4.11 13.77 24.78 9.37 0.29 2.59 -40.16 -3.70 4.53 4.34 0 0 -85.75 -10.84 11.96 2.16 0 0 -51.94 -4.48 8.76 9.47 0.83 0.29 -33.89 -6.88 4.22 4.77 0 0 -91.96 -15.46 15.03 2.87 0 0 -45.45 -4.33 12.00 8.65 1.01 -1.70 -34.34 -0.19 5.62 4.54 0 0 -112.19 -10.89 7.33 2.50 0 0 -55.68 -3.39 7.46 7.69 0.66 -3.90 -38.52 -17.89 5.94 3.21 0 0 -78.87 -16.45 19.94 1.92 0 0 -107.05 -25.99 20.93 -4.06 26.61 -1.12 5.79 -8.21 17.60 -14.17 0 0 41.03 13.49 42.76 -26.12 0 0 0.77 1.22 115.15 -27.71 0 0 -13.17 -22.89 -0.64 -2.29 -0.46 1.83 -54.04 49.66 90.97 -5.29 0 0 40.72 -10.74 -14.41 -3.01 0 0 2.16 12.04 -27.90 -9.37 0.29 2.59 39.61 -3.22 -3.53 -4.34 0 0 86.20 -9.75 -10.71 -2.16 0 0 52.18 -4.03 -7.84 -9.47 0.83 0.29 33.39 -6.50 -3.27 -4.77 0 0 92.58 -14.25 -13.71 -2.87 0 0 45.75 -4.00 -11.05 -8.65 1.01 -1.70 33.75 0.18 -4.71 -4.54 0 0 112.53 -9.25 -6.18 -2.50 0 0 55.87 -2.89 -6.32 -7.69 0.66 -3.90 38.26 -17.43 -4.88 -3.21 0 0 79.61 -15.55 -18.61 -1.92 0 0 108.04 -24.51 -19.39 8.73 -0 0 14.02 -17.30 31.56 0 -46.66 0 41.12 63.80 -33.16 0 -40.14 0 -21.15 -40.15 -4.03 0 -8.88 14.22 0 0 -0 -8.73 0 -0 -28.27 -15.19 -5.48 0 -46.66 0 -6.44 55.17 0.83 0 -40.14 0 26.81 -20.77 -12.09 0 -8.88 14.22 0 0 0 
1.71 80.51 12.20 -3.92 -2.72 -54.18 0 7.23 0 -0.16 0.11 5.45 0 16.54 0 -1.06 2.07 11.24 0 34.21 0 -7.36 27.37 10.88 0 6.29 0 -6.59 -12.95 21.62 4.06 26.61 -1.12 16.40 -8.83 -11.80 14.17 0 0 -43.07 -31.63 -43.77 26.12 0 0 -0.70 0.36 -54.41 27.71 0 0 2.29 -16.91 14.67 2.29 -0.46 1.83 53.91 51.92 -90.04 5.29 0 0 -39.29 -9.79 13.71 3.01 0 0 4.11 13.77 24.78 9.37 0.29 2.59 -40.16 -3.70 4.53 4.34 0 0 -85.75 -10.84 11.96 2.16 0 0 -51.94 -4.48 8.76 9.47 0.83 0.29 -33.89 -6.88 4.23 4.77 0 0 -91.96 -15.46 15.03 2.87 0 0 -45.45 -4.33 12.00 8.65 1.01 -1.70 -34.34 -0.19 5.62 4.54 0 0 -112.19 -10.89 7.33 2.50 0 0 -55.68 -3.39 7.46 7.69 0.66 -3.90 -38.52 -17.89 5.94 3.21 0 0 -78.87 -16.45 19.94 1.92 0 0 -107.05 -25.99 20.93 -4.06 26.61 -1.12 2.29 -8.48 16.22 -14.17 0 0 43.12 5.24 41.27 -26.12 0 0 0.76 1.25 117.55 -27.71 0 0 -9.09 -21.44 -2.46 -2.29 -0.46 1.83 -54.04 49.66 90.97 -5.29 0 0 40.72 -10.74 -14.41 -3.01 0 0 2.16 12.04 -27.90 -9.37 0.29 2.59 39.61 -3.22 -3.53 -4.34 0 0 86.20 -9.75 -10.71 -2.16 0 0 52.18 -4.03 -7.84 -9.47 0.83 0.29 33.39 -6.50 -3.27 -4.77 0 0 92.58 -14.25 -13.71 -2.87 0 0 45.75 -4.00 -11.05 -8.65 1.01 -1.70 33.75 0.18 -4.71 -4.54 0 0 112.53 -9.25 -6.18 -2.50 0 0 55.87 -2.89 -6.32 -7.69 0.66 -3.90 38.26 -17.43 -4.88 -3.21 0 0 79.61 -15.55 -18.61 -1.92 0 0 108.04 -24.51 -19.39 8.73 -0 0 13.66 -18.98 28.17 0 -46.66 0 41.37 63.87 -33.46 0 -40.14 0 -20.96 -39.41 -4.58 0 -8.88 14.22 0 0 -0 -8.73 0 -0 -28.55 -12.72 -9.51 0 -46.66 0 -6.97 54.74 2.61 0 -40.14 0 26.49 -21.49 -13.53 0 -8.88 14.22 0 0 -0 
1.59 80.81 11.87 -3.58 -1.72 -47.86 0 7.23 0 0.31 -0.44 6.06 0 16.54 0 -0.21 0.99 12.38 0 34.21 0 -7.37 27.07 9.45 0 6.29 0 -3.64 -11.31 17.17 4.06 26.61 -1.12 14.13 -8.46 -7.71 14.17 0 0 -45.36 -18.27 -42.82 26.12 0 0 -0.83 0.65 -75.82 27.71 0 0 12.87 -19.02 12.86 2.29 -0.46 1.83 53.91 51.92 -90.04 5.29 0 0 -39.29 -9.79 13.71 3.01 0 0 4.11 13.77 24.78 9.37 0.29 2.59 -40.16 -3.70 4.53 4.34 0 0 -85.75 -10.84 11.96 2.16 0 0 -51.94 -4.48 8.76 9.47 0.83 0.29 -33.89 -6.88 4.23 4.77 0 0 -91.96 -15.46 15.03 2.87 0 0 -45.45 -4.33 12.00 8.65 1.01 -1.70 -34.34 -0.19 5.62 4.54 0 0 -112.19 -10.89 7.33 2.50 0 0 -55.68 -3.39 7.46 7.69 0.66 -3.90 -38.52 -17.89 5.94 3.21 0 0 -78.87 -16.45 19.94 1.92 0 0 -107.05 -25.99 20.93 -4.06 26.61 -1.12 -2.13 -8.66 16.74 -14.17 0 0 43.94 -4.12 40.97 -26.12 0 0 0.78 1.20 113.48 -27.71 0 0 -4.26 -19.23 -3.31 -2.29 -0.46 1.83 -54.04 49.66 90.97 -5.29 0 0 40.72 -10.74 -14.41 -3.01 0 0 2.16 12.04 -27.90 -9.37 0.29 2.59 39.61 -3.22 -3.53 -4.34 0 0 86.20 -9.75 -10.71 -2.16 0 0 52.18 -4.03 -7.84 -9.47 0.83 0.29 33.39 -6.50 -3.27 -4.77 0 0 92.58 -14.25 -13.71 -2.87 0 0 45.75 -4.00 -11.05 -8.65 1.01 -1.70 33.75 0.18 -4.71 -4.54 0 0 112.53 -9.25 -6.18 -2.50 0 0 55.87 -2.89 -6.32 -7.69 0.66 -3.90 38.26 -17.43 -4.88 -3.21 0 0 79.61 -15.55 -18.61 -1.92 0 0 108.04 -24.51 -19.39 8.73 -0 0 13.44 -21.99 24.12 0 -46.66 0 41.26 63.74 -33.81 0 -40.14 0 -20.36 -38.28 -5.82 0 -8.88 14.22 0 0 0 -8.73 0 -0 -28.27 -9.41 -13.54 0 -46.66 0 -5.24 53.59 2.24 0 -40.14 0 25.94 -22.62 -16.46 0 -8.88 14.22 0 0 -0 
